<?xml version="1.0" encoding="iso-8859-1"?>
<!-- Generator: Adobe Illustrator 20.1.0, SVG Export Plug-In . SVG Version: 6.00 Build 0)  -->
<svg version="1.1" id="Layer_1" xmlns="http://www.w3.org/2000/svg" xmlns:xlink="http://www.w3.org/1999/xlink" x="0px" y="0px"
	 viewBox="0 0 425.027 92.579" style="enable-background:new 0 0 425.027 92.579;" xml:space="preserve">
<g>
	<polygon style="fill:#FFFFFF;" points="14.263,34.538 16.541,34.532 7.571,58.047 0.001,58.037 0.001,79.769 73.486,79.769 
		73.486,58.007 65.861,57.998 56.969,34.55 59.198,34.56 59.198,12.816 14.27,12.809 	"/>
	<g>
		<defs>
			<rect id="SVGID_1_" width="425.027" height="92.579"/>
		</defs>
		<clipPath id="SVGID_2_">
			<use xlink:href="#SVGID_1_"  style="overflow:visible;"/>
		</clipPath>
		<path style="clip-path:url(#SVGID_2_);fill:#BD2036;" d="M36.729,20.929l15.739,40.285c0,0,2.017,4.902,5.292,4.902H46.3
			c0,0,0.576,0.083,1.149-0.861c0.328-0.538,0.051-1.347,0.051-1.347l-3.543-8.993h-7.228h-7.198l-3.549,8.993
			c0,0-0.27,0.808,0.057,1.347c0.572,0.944,1.146,0.861,1.146,0.861h-11.46c3.275,0,5.292-4.902,5.292-4.902L36.729,20.929z"/>
	</g>
	<polygon style="fill:#00275B;" points="36.743,20.879 50.936,20.879 50.936,26.481 45.04,26.481 60.542,65.919 65.126,65.919 
		65.126,71.721 45.913,71.721 45.913,66.077 40.52,66.077 40.52,77.145 70.846,77.145 70.846,60.642 64.036,60.653 53.119,31.928 
		56.548,31.928 56.548,15.434 36.743,15.434 16.939,15.434 16.939,31.928 20.368,31.928 9.451,60.617 2.641,60.642 2.641,77.145 
		32.968,77.145 32.968,66.077 27.574,66.077 27.574,71.721 8.36,71.721 8.36,65.919 12.944,65.919 28.447,26.481 22.552,26.481 
		22.552,20.879 	"/>
	<g>
		<defs>
			<rect id="SVGID_3_" width="425.027" height="92.579"/>
		</defs>
		<clipPath id="SVGID_4_">
			<use xlink:href="#SVGID_3_"  style="overflow:visible;"/>
		</clipPath>
		<path style="clip-path:url(#SVGID_4_);fill:#00275B;" d="M79.611,72.353c0.555,0.534,0.831,1.189,0.831,1.966
			c0,0.772-0.276,1.428-0.829,1.964c-0.552,0.534-1.23,0.801-2.033,0.801s-1.478-0.267-2.033-0.801
			c-0.55-0.535-0.828-1.191-0.828-1.964c0-0.777,0.278-1.433,0.831-1.966c0.553-0.535,1.23-0.803,2.03-0.803
			S79.058,71.817,79.611,72.353 M79.208,72.686c-0.441-0.446-0.985-0.668-1.627-0.668c-0.642,0-1.184,0.222-1.626,0.668
			c-0.443,0.444-0.663,0.99-0.663,1.633s0.22,1.188,0.663,1.632c0.442,0.443,0.984,0.664,1.626,0.664
			c0.64,0,1.183-0.222,1.627-0.664c0.443-0.444,0.665-0.988,0.665-1.632S79.65,73.13,79.208,72.686 M76.34,72.719h0.257h1.042
			c0.35,0,0.624,0.076,0.824,0.228c0.198,0.153,0.299,0.368,0.299,0.639c0,0.294-0.101,0.528-0.3,0.696
			c-0.148,0.125-0.34,0.204-0.573,0.234l0.932,1.401h-0.294h-0.297l-0.839-1.382l-0.541,0.002v1.38h-0.254H76.34V72.719z
			 M76.848,74.111h0.69c0.24,0,0.415-0.042,0.526-0.126s0.165-0.217,0.165-0.397c0-0.159-0.054-0.274-0.165-0.351
			c-0.111-0.074-0.286-0.111-0.526-0.111h-0.69V74.111z"/>
	</g>
	<polygon style="fill:#FFFFFF;" points="36.717,50.646 42.262,50.646 36.826,36.514 31.198,50.646 	"/>
	<rect x="89.892" style="fill:#00275B;" width="1.317" height="92.579"/>
	<g>
		<defs>
			<rect id="SVGID_5_" width="425.027" height="92.579"/>
		</defs>
		<clipPath id="SVGID_6_">
			<use xlink:href="#SVGID_5_"  style="overflow:visible;"/>
		</clipPath>
		<path style="clip-path:url(#SVGID_6_);fill:#00275B;" d="M411.126,68.816h-2.118c0.428,0.321,0.719,0.586,0.876,0.798
			c0.157,0.21,0.259,0.465,0.306,0.767c0.045,0.301,0.068,0.847,0.068,1.639v8.59c0,0.782-0.023,1.326-0.068,1.632
			c-0.047,0.306-0.148,0.564-0.306,0.774c-0.158,0.211-0.448,0.477-0.876,0.798h5.457c-0.417-0.331-0.705-0.6-0.863-0.805
			c-0.157-0.206-0.261-0.474-0.312-0.804c-0.051-0.332-0.076-0.863-0.076-1.595v-6.559c0-0.822,0.148-1.438,0.442-1.85
			c0.326-0.442,0.762-0.787,1.311-1.038c0.549-0.25,1.154-0.376,1.814-0.376c0.681,0,1.323,0.127,1.928,0.384
			c0.604,0.255,1.065,0.588,1.38,0.999c0.254,0.302,0.437,0.705,0.549,1.212c0.111,0.507,0.167,1.191,0.167,2.054v5.175
			c0,0.702-0.025,1.223-0.077,1.565c-0.049,0.34-0.157,0.619-0.319,0.834c-0.162,0.216-0.457,0.484-0.883,0.805h5.502
			c-0.579-0.451-0.933-0.84-1.059-1.165c-0.128-0.327-0.19-1.007-0.19-2.039v-5.521c0-1.233-0.057-2.158-0.168-2.775
			c-0.113-0.617-0.315-1.157-0.611-1.617c-0.315-0.451-0.731-0.855-1.25-1.212c-0.518-0.355-1.115-0.629-1.791-0.819
			c-0.675-0.19-1.348-0.286-2.019-0.286c-0.975,0-1.828,0.189-2.56,0.564c-0.732,0.377-1.503,1.031-2.316,1.964v-2.707
			C412.676,68.61,412.031,68.816,411.126,68.816 M401.252,71.328c0.818,0.511,1.453,1.229,1.905,2.151s0.678,1.986,0.678,3.189
			c0,1.063-0.216,2.001-0.648,2.814c-0.43,0.812-1.038,1.443-1.821,1.895c-0.781,0.451-1.667,0.676-2.652,0.676
			c-0.741,0-1.434-0.147-2.079-0.442c-0.646-0.297-1.218-0.725-1.714-1.287c-0.498-0.561-0.879-1.218-1.145-1.971
			c-0.264-0.751-0.396-1.539-0.396-2.361c0-1.042,0.212-1.981,0.633-2.814c0.422-0.831,1.014-1.476,1.776-1.932
			s1.635-0.686,2.62-0.686C399.486,70.56,400.434,70.817,401.252,71.328 M396.717,68.576c-0.671,0.131-1.305,0.329-1.905,0.594
			c-0.599,0.266-1.169,0.599-1.707,1.001c-0.965,0.743-1.722,1.662-2.271,2.76c-0.547,1.098-0.822,2.248-0.822,3.453
			c0,1.464,0.363,2.798,1.089,4.001c0.727,1.204,1.738,2.149,3.033,2.836c1.296,0.687,2.732,1.031,4.307,1.031
			c1.615,0,3.096-0.357,4.441-1.068c1.347-0.713,2.403-1.683,3.171-2.911c0.767-1.229,1.15-2.585,1.15-4.069
			c0-1.083-0.219-2.123-0.655-3.122c-0.437-0.997-1.073-1.868-1.905-2.61c-1.534-1.393-3.435-2.091-5.7-2.091
			C398.13,68.379,397.388,68.445,396.717,68.576 M384.045,63.386c-0.406,0.39-0.609,0.862-0.609,1.413
			c0,0.571,0.195,1.056,0.586,1.452c0.392,0.396,0.872,0.594,1.44,0.594c0.59,0,1.08-0.198,1.471-0.594
			c0.39-0.396,0.586-0.881,0.586-1.452c0-0.542-0.193-1.01-0.579-1.406c-0.387-0.396-0.859-0.596-1.418-0.596
			C384.945,62.798,384.452,62.994,384.045,63.386 M385.097,68.816h-2.286c0.427,0.321,0.719,0.586,0.876,0.798
			c0.158,0.21,0.26,0.465,0.306,0.767c0.045,0.301,0.068,0.847,0.068,1.639v8.59c0,0.782-0.023,1.326-0.068,1.632
			c-0.047,0.306-0.148,0.564-0.306,0.774c-0.157,0.211-0.448,0.477-0.876,0.798h5.457c-0.417-0.331-0.705-0.6-0.861-0.805
			c-0.159-0.206-0.262-0.474-0.313-0.804c-0.051-0.332-0.077-0.863-0.077-1.595V68.199C386.631,68.61,385.991,68.816,385.097,68.816
			 M379.169,70.967c0.559,0,0.981,0.043,1.264,0.127c0.285,0.086,0.549,0.239,0.793,0.459v-2.932
			c-0.315,0.131-0.96,0.195-1.936,0.195h-2.561v-4.844h-1.279v0.406c0,1.824-0.406,3.159-1.22,4.001
			c-0.681,0.753-1.585,1.224-2.712,1.414v1.173h2.255v7.176c0,1.043,0.031,1.826,0.092,2.346c0.061,0.522,0.172,0.951,0.336,1.287
			c0.162,0.336,0.415,0.684,0.762,1.046c0.924,0.952,2.048,1.429,3.368,1.429c0.417,0,0.813-0.066,1.189-0.197l1.707-2.301
			c-0.487,0.18-0.945,0.27-1.372,0.27c-1.077,0-1.92-0.37-2.529-1.113c-0.234-0.291-0.392-0.642-0.473-1.053
			c-0.082-0.411-0.123-1.073-0.123-1.986v-6.904H379.169z M365.981,82.145c0.168,0.45,0.5,0.833,0.997,1.143
			c0.396,0.24,0.813,0.408,1.25,0.504c0.438,0.094,1.053,0.173,1.845,0.232l1.433-2.121c-0.905-0.03-1.56-0.205-1.967-0.526
			c-0.375-0.27-0.609-0.564-0.701-0.881c-0.091-0.315-0.138-0.935-0.138-1.857v-4.197c0-1.194-0.038-2.023-0.114-2.49
			c-0.077-0.466-0.257-0.93-0.54-1.392c-0.926-1.453-2.78-2.181-5.564-2.181c-0.792,0-1.554,0.071-2.286,0.212l-2.179,3.264
			c1.077-0.512,1.926-0.855,2.545-1.031c0.62-0.175,1.269-0.264,1.95-0.264c0.611,0,1.156,0.086,1.639,0.257
			c0.482,0.171,0.855,0.414,1.119,0.729c0.264,0.317,0.397,0.68,0.397,1.09c0,0.582-0.247,1.023-0.74,1.325
			c-0.493,0.3-1.486,0.597-2.98,0.888c-2.062,0.39-3.504,0.812-4.328,1.263c-0.56,0.291-1.006,0.74-1.341,1.347
			c-0.336,0.606-0.504,1.245-0.504,1.917c0,1.414,0.56,2.618,1.677,3.61c0.956,0.843,2.256,1.265,3.901,1.265
			c0.641,0,1.245-0.066,1.814-0.197l1.936-2.421c-0.936,0.281-1.758,0.42-2.469,0.42c-1.098,0-1.954-0.235-2.568-0.706
			c-0.615-0.471-0.923-1.118-0.923-1.941c0-1.283,0.792-2.115,2.377-2.496c1.188-0.271,1.953-0.451,2.294-0.541
			c0.341-0.091,0.65-0.183,0.93-0.279c0.279-0.094,0.607-0.232,0.982-0.414v4.197C365.729,80.936,365.813,81.693,365.981,82.145
			 M348.779,68.379c-1.424,0-2.676,0.186-3.758,0.556c-1.082,0.372-2.066,0.959-2.949,1.761c-1.788,1.625-2.682,3.596-2.682,5.911
			c0,1.083,0.224,2.099,0.671,3.047s1.077,1.766,1.89,2.452c0.813,0.687,1.759,1.215,2.842,1.587
			c1.082,0.371,2.279,0.557,3.588,0.557c1.788,0,3.19-0.197,4.207-0.587l1.935-3.175c-0.549,0.353-1.106,0.645-1.67,0.881
			c-0.562,0.236-1.125,0.41-1.683,0.519c-0.56,0.111-1.118,0.165-1.677,0.165c-1.27,0-2.415-0.262-3.436-0.789
			c-1.021-0.527-1.827-1.262-2.416-2.204c-0.588-0.943-0.884-1.986-0.884-3.129c0-1.063,0.227-2.004,0.678-2.822
			c0.453-0.817,1.102-1.446,1.952-1.887c0.848-0.441,1.806-0.663,2.872-0.663c1.646,0,3.018,0.526,4.115,1.579v-3.354
			C351.197,68.514,349.997,68.379,348.779,68.379 M337.646,83.814c-0.417-0.331-0.705-0.6-0.863-0.805
			c-0.157-0.206-0.261-0.474-0.312-0.804c-0.051-0.332-0.077-0.863-0.077-1.595V68.199c-0.385,0.411-1.015,0.617-1.89,0.617h-2.316
			c0.417,0.311,0.704,0.571,0.861,0.783c0.158,0.21,0.261,0.493,0.312,0.849c0.051,0.357,0.077,0.881,0.077,1.572v5.822
			c0,1.174-0.345,2.114-1.036,2.822c-0.69,0.706-1.616,1.061-2.773,1.061c-1.25,0-2.224-0.411-2.927-1.235
			c-0.294-0.381-0.505-0.816-0.632-1.308c-0.127-0.492-0.19-1.134-0.19-1.926v-9.055c-0.387,0.411-1.043,0.617-1.967,0.617h-2.241
			c0.427,0.321,0.72,0.586,0.877,0.798c0.158,0.21,0.258,0.465,0.305,0.767c0.045,0.301,0.069,0.847,0.069,1.639v5.822
			c0,1.836,0.309,3.21,0.928,4.122c0.489,0.723,1.161,1.284,2.021,1.686c0.858,0.401,1.83,0.602,2.918,0.602
			c0.742,0,1.365-0.078,1.867-0.234s0.965-0.4,1.388-0.736c0.422-0.336,0.927-0.866,1.516-1.587v2.121H337.646z M313.433,68.823
			c-0.802-0.296-1.711-0.444-2.728-0.444c-1.077,0-2.082,0.201-3.017,0.602c-0.936,0.402-1.758,0.969-2.469,1.701
			c-0.712,0.732-1.26,1.581-1.647,2.55c-0.385,0.967-0.579,2.007-0.579,3.121c0,1.383,0.297,2.64,0.892,3.768
			c0.594,1.128,1.449,2.073,2.568,2.835c0.679,0.441,1.425,0.768,2.232,0.978c0.808,0.21,1.719,0.316,2.736,0.316
			c0.569,0,1.117-0.075,1.646-0.227l1.905-2.917c-0.549,0.34-1.03,0.573-1.447,0.699s-0.898,0.188-1.448,0.188
			c-1.087,0-2.062-0.266-2.927-0.797c-0.864-0.531-1.545-1.273-2.041-2.226c-0.498-0.954-0.747-2.007-0.747-3.16
			c0-1.002,0.206-1.91,0.616-2.723c0.411-0.812,0.986-1.446,1.722-1.902c0.736-0.457,1.572-0.685,2.508-0.685
			c0.741,0,1.441,0.156,2.103,0.466c0.66,0.31,1.203,0.753,1.631,1.324c0.406,0.512,0.666,1.01,0.777,1.497
			c0.112,0.486,0.168,1.361,0.168,2.625v7.401h4.206c-0.579-0.451-0.931-0.84-1.059-1.165c-0.128-0.327-0.19-1.007-0.19-2.039
			V61.791c-0.387,0.411-1.032,0.616-1.935,0.616h-2.271c0.415,0.311,0.703,0.571,0.861,0.781c0.158,0.212,0.261,0.495,0.312,0.851
			c0.051,0.355,0.076,0.881,0.076,1.572v4.678C315.053,69.608,314.235,69.118,313.433,68.823 M294.119,73.344
			c0.752,0,1.311,0.065,1.677,0.195c0.366,0.131,0.671,0.362,0.914,0.692v-3.444c-0.305,0.141-0.675,0.21-1.111,0.21h-4.406v-6.062
			c0.875-0.151,2.007-0.227,3.399-0.227c1.047,0,1.852,0.09,2.415,0.271c0.564,0.18,1.101,0.521,1.608,1.023v-3.792
			c-0.335,0.13-0.751,0.196-1.249,0.196h-10.958c0.417,0.221,0.726,0.474,0.93,0.759c0.203,0.287,0.345,0.683,0.426,1.188
			c0.081,0.507,0.121,1.242,0.121,2.205v13.058c0,0.952-0.037,1.688-0.114,2.203c-0.077,0.516-0.221,0.925-0.434,1.226
			c-0.214,0.301-0.523,0.556-0.93,0.768h13.747l1.524-4.257c-0.885,0.661-1.827,1.135-2.827,1.42c-1,0.287-2.202,0.429-3.604,0.429
			c-1.301,0-2.652-0.109-4.055-0.33v-7.733H294.119z M274.983,82.649c-0.127-0.327-0.19-1.007-0.19-2.039V61.791
			c-0.385,0.411-1.03,0.616-1.935,0.616h-2.271c0.426,0.321,0.719,0.583,0.876,0.789c0.158,0.206,0.26,0.459,0.305,0.761
			c0.046,0.3,0.069,0.852,0.069,1.654V80.61c0,0.782-0.023,1.326-0.069,1.632c-0.045,0.306-0.147,0.564-0.305,0.774
			c-0.157,0.211-0.45,0.477-0.876,0.798h5.456C275.463,83.363,275.111,82.974,274.983,82.649 M264.039,82.145
			c0.168,0.45,0.501,0.833,0.999,1.143c0.396,0.24,0.813,0.408,1.249,0.504c0.437,0.094,1.052,0.173,1.845,0.232l1.432-2.121
			c-0.904-0.03-1.56-0.205-1.966-0.526c-0.377-0.27-0.609-0.564-0.701-0.881c-0.091-0.315-0.138-0.935-0.138-1.857v-4.197
			c0-1.194-0.037-2.023-0.114-2.49s-0.257-0.93-0.542-1.392c-0.924-1.453-2.778-2.181-5.562-2.181c-0.793,0-1.556,0.071-2.286,0.212
			l-2.179,3.264c1.077-0.512,1.924-0.855,2.544-1.031c0.621-0.175,1.271-0.264,1.951-0.264c0.609,0,1.155,0.086,1.638,0.257
			s0.857,0.414,1.121,0.729c0.264,0.317,0.396,0.68,0.396,1.09c0,0.582-0.246,1.023-0.74,1.325c-0.492,0.3-1.485,0.597-2.979,0.888
			c-2.062,0.39-3.505,0.812-4.327,1.263c-0.559,0.291-1.007,0.74-1.343,1.347c-0.334,0.606-0.502,1.245-0.502,1.917
			c0,1.414,0.559,2.618,1.677,3.61c0.954,0.843,2.255,1.265,3.902,1.265c0.641,0,1.243-0.066,1.813-0.197l1.935-2.421
			c-0.935,0.281-1.758,0.42-2.469,0.42c-1.096,0-1.953-0.235-2.568-0.706s-0.921-1.118-0.921-1.941c0-1.283,0.792-2.115,2.378-2.496
			c1.188-0.271,1.953-0.451,2.293-0.541c0.341-0.091,0.65-0.183,0.928-0.279c0.281-0.094,0.608-0.232,0.984-0.414v4.197
			C263.789,80.936,263.873,81.693,264.039,82.145 M238.55,68.816h-2.118c0.426,0.321,0.718,0.586,0.876,0.798
			c0.158,0.21,0.258,0.465,0.304,0.767c0.045,0.301,0.069,0.847,0.069,1.639v8.59c0,0.782-0.024,1.326-0.069,1.632
			c-0.046,0.306-0.147,0.564-0.304,0.774c-0.158,0.211-0.45,0.477-0.876,0.798h5.456c-0.417-0.331-0.703-0.6-0.861-0.805
			c-0.157-0.206-0.262-0.474-0.312-0.804c-0.051-0.332-0.077-0.863-0.077-1.595v-6.559c0-0.822,0.147-1.438,0.441-1.85
			c0.325-0.442,0.762-0.787,1.311-1.038c0.549-0.25,1.154-0.376,1.814-0.376c0.681,0,1.324,0.127,1.929,0.384
			c0.604,0.255,1.064,0.588,1.378,0.999c0.254,0.302,0.437,0.705,0.549,1.212c0.111,0.507,0.168,1.191,0.168,2.054v5.175
			c0,0.702-0.025,1.223-0.077,1.565c-0.051,0.34-0.157,0.619-0.319,0.834c-0.163,0.216-0.457,0.484-0.885,0.805h5.502
			c-0.579-0.451-0.932-0.84-1.059-1.165c-0.128-0.327-0.191-1.007-0.191-2.039v-5.521c0-1.233-0.055-2.158-0.168-2.775
			c-0.111-0.617-0.315-1.157-0.609-1.617c-0.315-0.451-0.732-0.855-1.25-1.212c-0.519-0.355-1.116-0.629-1.791-0.819
			c-0.676-0.19-1.348-0.286-2.019-0.286c-0.977,0-1.83,0.189-2.561,0.564c-0.732,0.377-1.505,1.031-2.317,1.964v-2.707
			C240.099,68.61,239.454,68.816,238.55,68.816 M228.675,71.328c0.818,0.511,1.452,1.229,1.905,2.151
			c0.452,0.923,0.678,1.986,0.678,3.189c0,1.063-0.216,2.001-0.648,2.814c-0.432,0.812-1.039,1.443-1.821,1.895
			c-0.783,0.451-1.667,0.676-2.652,0.676c-0.742,0-1.436-0.147-2.081-0.442c-0.645-0.297-1.216-0.725-1.715-1.287
			c-0.498-0.561-0.879-1.218-1.143-1.971c-0.264-0.751-0.396-1.539-0.396-2.361c0-1.042,0.21-1.981,0.632-2.814
			c0.421-0.831,1.014-1.476,1.776-1.932c0.762-0.456,1.637-0.686,2.622-0.686C226.91,70.56,227.856,70.817,228.675,71.328
			 M224.141,68.576c-0.671,0.131-1.307,0.329-1.905,0.594c-0.6,0.266-1.169,0.599-1.707,1.001c-0.966,0.743-1.722,1.662-2.271,2.76
			c-0.549,1.098-0.823,2.248-0.823,3.453c0,1.464,0.363,2.798,1.09,4.001c0.726,1.204,1.737,2.149,3.033,2.836
			c1.294,0.687,2.73,1.031,4.305,1.031c1.615,0,3.096-0.357,4.443-1.068c1.345-0.713,2.403-1.683,3.169-2.911
			c0.767-1.229,1.151-2.585,1.151-4.069c0-1.083-0.219-2.123-0.656-3.122c-0.437-0.997-1.071-1.868-1.905-2.61
			c-1.534-1.393-3.434-2.091-5.7-2.091C225.552,68.379,224.811,68.445,224.141,68.576 M211.469,63.386
			c-0.406,0.39-0.611,0.862-0.611,1.413c0,0.571,0.197,1.056,0.587,1.452c0.392,0.396,0.871,0.594,1.441,0.594
			c0.588,0,1.078-0.198,1.47-0.594c0.391-0.396,0.587-0.881,0.587-1.452c0-0.542-0.193-1.01-0.579-1.406
			c-0.386-0.396-0.858-0.596-1.418-0.596C212.367,62.798,211.874,62.994,211.469,63.386 M212.52,68.816h-2.286
			c0.426,0.321,0.719,0.586,0.876,0.798c0.158,0.21,0.259,0.465,0.305,0.767c0.047,0.301,0.069,0.847,0.069,1.639v8.59
			c0,0.782-0.022,1.326-0.069,1.632c-0.045,0.306-0.147,0.564-0.305,0.774c-0.158,0.211-0.45,0.477-0.876,0.798h5.456
			c-0.417-0.331-0.704-0.6-0.861-0.805c-0.158-0.206-0.261-0.474-0.312-0.804c-0.051-0.332-0.077-0.863-0.077-1.595V68.199
			C214.053,68.61,213.414,68.816,212.52,68.816 M203.247,68.379c-1.332,0-2.483,0.174-3.453,0.519
			c-0.971,0.347-1.715,0.851-2.232,1.512c-0.519,0.661-0.777,1.445-0.777,2.348c0,0.691,0.148,1.281,0.449,1.767
			c0.3,0.486,0.801,0.936,1.501,1.347c0.701,0.411,1.692,0.841,2.971,1.293c1.717,0.612,2.769,1.053,3.156,1.325
			c0.496,0.351,0.745,0.841,0.745,1.473c0,0.652-0.34,1.197-1.02,1.633c-0.681,0.435-1.524,0.654-2.531,0.654
			c-0.7,0-1.363-0.063-1.989-0.189c-0.624-0.124-1.267-0.333-1.927-0.624c-0.661-0.291-1.407-0.691-2.241-1.203l1.128,3.204
			c0.883,0.321,1.626,0.537,2.226,0.647c0.598,0.111,1.335,0.166,2.209,0.166c1.473,0,2.756-0.205,3.848-0.618
			c1.092-0.411,1.937-1.002,2.531-1.774c0.594-0.772,0.891-1.659,0.891-2.662c0-1.103-0.426-2.05-1.28-2.842
			c-0.427-0.382-0.901-0.693-1.425-0.933c-0.523-0.242-1.421-0.567-2.69-0.978c-0.895-0.28-1.591-0.531-2.088-0.753
			c-0.498-0.22-0.859-0.456-1.083-0.706c-0.224-0.251-0.334-0.531-0.334-0.843c0-0.541,0.276-0.979,0.829-1.315
			c0.555-0.336,1.288-0.504,2.204-0.504c1.28,0,2.631,0.421,4.053,1.263v-2.768C205.914,68.525,204.689,68.379,203.247,68.379
			 M188.783,68.379c-1.331,0-2.482,0.174-3.451,0.519c-0.971,0.347-1.715,0.851-2.234,1.512c-0.518,0.661-0.777,1.445-0.777,2.348
			c0,0.691,0.15,1.281,0.45,1.767c0.298,0.486,0.799,0.936,1.501,1.347c0.701,0.411,1.691,0.841,2.971,1.293
			c1.716,0.612,2.769,1.053,3.155,1.325c0.498,0.351,0.747,0.841,0.747,1.473c0,0.652-0.34,1.197-1.021,1.633
			c-0.681,0.435-1.524,0.654-2.529,0.654c-0.702,0-1.365-0.063-1.989-0.189c-0.626-0.124-1.268-0.333-1.929-0.624
			c-0.66-0.291-1.407-0.691-2.239-1.203l1.128,3.204c0.883,0.321,1.624,0.537,2.225,0.647c0.6,0.111,1.337,0.166,2.21,0.166
			c1.473,0,2.757-0.205,3.849-0.618c1.092-0.411,1.935-1.002,2.529-1.774c0.595-0.772,0.893-1.659,0.893-2.662
			c0-1.103-0.428-2.05-1.281-2.842c-0.426-0.382-0.902-0.693-1.425-0.933c-0.523-0.242-1.419-0.567-2.689-0.978
			c-0.894-0.28-1.59-0.531-2.088-0.753c-0.498-0.22-0.858-0.456-1.081-0.706c-0.223-0.251-0.336-0.531-0.336-0.843
			c0-0.541,0.278-0.979,0.831-1.315s1.287-0.504,2.202-0.504c1.279,0,2.631,0.421,4.055,1.263v-2.768
			C191.45,68.525,190.226,68.379,188.783,68.379 M169.106,71.268c0.762-0.632,1.701-0.948,2.82-0.948
			c2.326,0,3.723,1.214,4.191,3.64h-8.52C167.841,72.797,168.344,71.9,169.106,71.268 M179.576,75.465
			c0-1.023-0.188-1.968-0.564-2.837c-0.377-0.867-0.898-1.617-1.569-2.248s-1.464-1.124-2.378-1.475
			c-0.915-0.351-1.911-0.526-2.988-0.526c-1.096,0-2.11,0.159-3.04,0.474c-0.93,0.316-1.744,0.785-2.446,1.407
			c-0.539,0.481-1.011,1.05-1.418,1.707s-0.719,1.354-0.936,2.091c-0.219,0.738-0.328,1.482-0.328,2.233
			c0,1.535,0.395,2.909,1.182,4.122c0.786,1.214,1.895,2.157,3.322,2.829c1.427,0.672,3.035,1.008,4.823,1.008
			c0.528,0,1.055-0.025,1.578-0.075c0.523-0.051,1.021-0.133,1.494-0.249c0.473-0.116,0.968-0.269,1.485-0.459l1.783-3.099
			c-0.6,0.402-1.179,0.725-1.737,0.971c-0.559,0.246-1.157,0.426-1.791,0.541c-0.635,0.116-1.297,0.173-1.989,0.173
			c-1.29,0-2.428-0.24-3.414-0.721c-0.986-0.481-1.748-1.177-2.286-2.091c-0.538-0.912-0.839-1.995-0.898-3.249h12.115V75.465z
			 M161.238,70.967c0.57,0,0.958,0.033,1.167,0.097c0.209,0.066,0.404,0.209,0.587,0.429v-2.872
			c-0.366,0.131-0.751,0.195-1.158,0.195h-3.338V66.74c0-0.972,0.1-1.609,0.305-1.911c0.385-0.632,1.062-0.947,2.026-0.947
			c0.589,0,1.154,0.175,1.692,0.527l2.348-2.528c-0.915-0.151-1.667-0.227-2.256-0.227c-1.189,0-2.212,0.126-3.071,0.377
			c-0.859,0.25-1.593,0.642-2.203,1.173c-0.65,0.552-1.115,1.139-1.393,1.761c-0.281,0.621-0.42,1.379-0.42,2.271v1.579
			l-1.646,2.151h1.646v9.643c0,0.702-0.026,1.226-0.075,1.572c-0.051,0.345-0.156,0.627-0.313,0.841
			c-0.158,0.216-0.444,0.48-0.861,0.79h5.623c-0.234-0.141-0.396-0.261-0.488-0.362c-0.091-0.1-0.243-0.321-0.458-0.661
			c-0.122-0.231-0.216-0.479-0.282-0.745c-0.066-0.265-0.111-0.633-0.137-1.105c-0.025-0.471-0.037-0.952-0.037-1.443v-8.53H161.238
			z M146.433,71.328c0.819,0.511,1.454,1.229,1.905,2.151c0.453,0.923,0.68,1.986,0.68,3.189c0,1.063-0.216,2.001-0.648,2.814
			c-0.432,0.812-1.039,1.443-1.821,1.895c-0.783,0.451-1.667,0.676-2.652,0.676c-0.742,0-1.435-0.147-2.08-0.442
			c-0.645-0.297-1.217-0.725-1.715-1.287c-0.498-0.561-0.879-1.218-1.143-1.971c-0.266-0.751-0.396-1.539-0.396-2.361
			c0-1.042,0.21-1.981,0.632-2.814c0.421-0.831,1.014-1.476,1.776-1.932s1.635-0.686,2.62-0.686
			C144.668,70.56,145.616,70.817,146.433,71.328 M141.9,68.576c-0.671,0.131-1.307,0.329-1.905,0.594
			c-0.6,0.266-1.169,0.599-1.707,1.001c-0.966,0.743-1.722,1.662-2.271,2.76c-0.549,1.098-0.824,2.248-0.824,3.453
			c0,1.464,0.363,2.798,1.09,4.001c0.726,1.204,1.737,2.149,3.032,2.836c1.296,0.687,2.732,1.031,4.306,1.031
			c1.616,0,3.096-0.357,4.443-1.068c1.346-0.713,2.402-1.683,3.17-2.911c0.766-1.229,1.15-2.585,1.15-4.069
			c0-1.083-0.219-2.123-0.655-3.122c-0.436-0.997-1.073-1.868-1.905-2.61c-1.535-1.393-3.435-2.091-5.7-2.091
			C143.312,68.379,142.571,68.445,141.9,68.576 M129.611,83.009c-0.158-0.206-0.261-0.474-0.312-0.804
			c-0.051-0.332-0.077-0.863-0.077-1.595v-5.356c0-1.333,0.234-2.32,0.702-2.963c0.284-0.411,0.68-0.735,1.188-0.97
			s1.058-0.354,1.647-0.354c0.671,0,1.188,0.175,1.554,0.526v-2.994c-0.457-0.079-0.839-0.12-1.143-0.12
			c-0.853,0-1.615,0.213-2.286,0.639c-0.671,0.427-1.224,1.046-1.662,1.858v-2.677c-0.385,0.411-1.026,0.617-1.92,0.617h-2.286
			c0.428,0.321,0.719,0.586,0.876,0.798c0.158,0.21,0.26,0.465,0.306,0.767c0.045,0.301,0.068,0.847,0.068,1.639v8.59
			c0,0.782-0.023,1.326-0.068,1.632c-0.046,0.306-0.148,0.564-0.306,0.774c-0.157,0.211-0.448,0.477-0.876,0.798h5.457
			C130.056,83.483,129.768,83.214,129.611,83.009 M114.69,64.618c0.752,0,1.422,0.09,2.011,0.272c0.59,0.18,1.09,0.449,1.502,0.804
			c0.411,0.355,0.726,0.777,0.945,1.263c0.218,0.488,0.327,1.052,0.327,1.694c0,1.364-0.573,2.536-1.722,3.519
			c-0.538,0.443-1.12,0.783-1.745,1.023c-0.625,0.242-1.455,0.422-2.492,0.541c0.73,0.291,1.518,0.437,2.363,0.437
			c1.309,0,2.521-0.273,3.634-0.819c1.111-0.548,1.996-1.291,2.652-2.235c0.656-0.942,0.983-1.96,0.983-3.052
			c0-1.034-0.305-1.989-0.915-2.866c-0.609-0.878-1.417-1.551-2.423-2.024c-1.138-0.531-2.582-0.797-4.329-0.797h-1.037
			c-1.575,0.02-2.481,0.03-2.72,0.03h-0.967h-3.156c0.407,0.21,0.717,0.464,0.93,0.759c0.213,0.296,0.358,0.702,0.435,1.219
			c0.077,0.516,0.114,1.241,0.114,2.174v13.103c0,0.933-0.037,1.658-0.114,2.174c-0.076,0.516-0.222,0.923-0.435,1.218
			c-0.213,0.297-0.523,0.549-0.93,0.76h6.494c-0.438-0.271-0.783-0.57-1.037-0.896c-0.255-0.326-0.429-0.725-0.526-1.195
			c-0.096-0.471-0.144-1.049-0.144-1.731V64.905C113.151,64.715,113.918,64.618,114.69,64.618"/>
		<path style="clip-path:url(#SVGID_6_);fill:#00275B;" d="M314.203,36.987c-0.802-0.295-1.713-0.444-2.728-0.444
			c-1.077,0-2.084,0.201-3.018,0.603c-0.935,0.401-1.758,0.967-2.469,1.699c-0.711,0.732-1.26,1.583-1.646,2.55
			c-0.387,0.967-0.579,2.008-0.579,3.121c0,1.383,0.297,2.64,0.891,3.768c0.595,1.128,1.451,2.073,2.568,2.835
			c0.681,0.443,1.425,0.768,2.233,0.978c0.807,0.212,1.719,0.317,2.736,0.317c0.568,0,1.117-0.075,1.645-0.227l1.905-2.917
			c-0.549,0.34-1.032,0.574-1.448,0.699c-0.417,0.126-0.9,0.189-1.449,0.189c-1.086,0-2.062-0.265-2.925-0.798
			c-0.864-0.531-1.545-1.273-2.043-2.226c-0.498-0.952-0.747-2.005-0.747-3.159c0-1.004,0.206-1.911,0.618-2.723
			c0.411-0.813,0.986-1.448,1.722-1.903c0.737-0.456,1.572-0.684,2.507-0.684c0.742,0,1.443,0.155,2.103,0.465
			c0.661,0.312,1.204,0.753,1.632,1.325c0.405,0.511,0.665,1.011,0.777,1.497c0.111,0.486,0.168,1.36,0.168,2.625v7.401h4.206
			c-0.579-0.451-0.933-0.84-1.059-1.165c-0.128-0.326-0.19-1.005-0.19-2.039V29.955c-0.387,0.411-1.032,0.616-1.937,0.616h-2.271
			c0.417,0.311,0.703,0.572,0.861,0.783c0.158,0.21,0.262,0.494,0.314,0.849c0.051,0.357,0.076,0.881,0.076,1.572v4.679
			C315.823,37.773,315.005,37.284,314.203,36.987 M288.22,36.98h-2.118c0.428,0.321,0.719,0.586,0.876,0.798
			c0.158,0.21,0.26,0.467,0.305,0.766c0.047,0.301,0.069,0.848,0.069,1.64v8.59c0,0.782-0.022,1.326-0.069,1.632
			c-0.045,0.306-0.147,0.564-0.305,0.775c-0.158,0.21-0.448,0.476-0.876,0.797h5.456c-0.416-0.331-0.704-0.599-0.861-0.804
			s-0.261-0.474-0.312-0.806c-0.051-0.331-0.077-0.862-0.077-1.595v-6.559c0-0.822,0.147-1.438,0.442-1.85
			c0.326-0.441,0.762-0.787,1.311-1.038c0.549-0.251,1.152-0.377,1.813-0.377c0.681,0,1.323,0.128,1.928,0.384
			c0.604,0.255,1.065,0.59,1.38,1.001c0.253,0.3,0.436,0.705,0.547,1.21c0.113,0.507,0.168,1.191,0.168,2.054v5.175
			c0,0.702-0.026,1.224-0.077,1.565s-0.158,0.62-0.319,0.835c-0.162,0.215-0.458,0.483-0.884,0.804h5.502
			c-0.581-0.451-0.933-0.84-1.061-1.165c-0.126-0.326-0.19-1.005-0.19-2.039v-5.521c0-1.233-0.056-2.158-0.167-2.775
			c-0.112-0.617-0.315-1.155-0.61-1.617c-0.315-0.452-0.73-0.855-1.25-1.21c-0.518-0.357-1.115-0.63-1.791-0.821
			c-0.675-0.191-1.349-0.286-2.019-0.286c-0.975,0-1.829,0.189-2.56,0.566c-0.732,0.375-1.503,1.03-2.316,1.962v-2.708
			C289.769,36.774,289.124,36.98,288.22,36.98 M279.479,50.309c0.168,0.451,0.501,0.833,0.999,1.143
			c0.396,0.242,0.813,0.41,1.249,0.504c0.436,0.096,1.052,0.173,1.845,0.232l1.432-2.121c-0.904-0.03-1.56-0.205-1.966-0.526
			c-0.376-0.27-0.61-0.564-0.701-0.879c-0.091-0.317-0.138-0.936-0.138-1.859v-4.197c0-1.192-0.037-2.023-0.114-2.49
			s-0.257-0.93-0.542-1.39c-0.924-1.455-2.778-2.183-5.562-2.183c-0.793,0-1.555,0.07-2.286,0.212l-2.18,3.264
			c1.077-0.512,1.924-0.855,2.544-1.031c0.621-0.175,1.271-0.262,1.951-0.262c0.609,0,1.155,0.085,1.638,0.255
			c0.483,0.171,0.857,0.414,1.121,0.73c0.264,0.315,0.396,0.68,0.396,1.09c0,0.581-0.246,1.023-0.74,1.323
			c-0.492,0.302-1.485,0.597-2.979,0.888c-2.062,0.392-3.506,0.812-4.329,1.263c-0.558,0.291-1.005,0.739-1.341,1.347
			c-0.335,0.606-0.503,1.246-0.503,1.918c0,1.413,0.56,2.618,1.677,3.611c0.954,0.841,2.255,1.263,3.902,1.263
			c0.641,0,1.243-0.066,1.814-0.195l1.935-2.423c-0.935,0.28-1.758,0.422-2.469,0.422c-1.096,0-1.953-0.236-2.568-0.708
			c-0.615-0.471-0.921-1.118-0.921-1.94c0-1.284,0.792-2.116,2.378-2.497c1.188-0.271,1.953-0.451,2.294-0.542
			c0.34-0.09,0.649-0.183,0.928-0.279c0.28-0.095,0.607-0.232,0.984-0.414v4.198C279.229,49.1,279.313,49.857,279.479,50.309
			 M253.075,39.567c0.802,0.762,1.204,1.695,1.204,2.799c0,0.972-0.305,1.764-0.915,2.376c-0.609,0.612-1.407,0.918-2.392,0.918
			c-1.179,0-2.183-0.403-3.011-1.21c-0.828-0.807-1.242-1.788-1.242-2.941c0-0.882,0.328-1.617,0.984-2.204
			c0.656-0.586,1.465-0.88,2.43-0.88C251.291,38.424,252.272,38.805,253.075,39.567 M256.489,36.815
			c-1.005,0-2.058-0.041-3.155-0.12c-1.524-0.101-2.479-0.152-2.865-0.152c-1.25,0-2.395,0.246-3.436,0.738
			c-1.043,0.492-1.857,1.158-2.447,2.001c-0.589,0.841-0.883,1.781-0.883,2.812c0,0.723,0.156,1.425,0.473,2.106
			c0.313,0.682,0.756,1.274,1.324,1.776c0.376,0.321,0.717,0.553,1.021,0.699s0.758,0.299,1.356,0.459
			c-0.73,0.281-1.283,0.514-1.653,0.699c-0.371,0.186-0.624,0.357-0.762,0.511c-0.136,0.156-0.205,0.339-0.205,0.549
			c0,0.271,0.076,0.579,0.228,0.925c0.153,0.347,0.336,0.624,0.549,0.835c0.427,0.371,0.949,0.556,1.57,0.556
			c0.305,0,0.553-0.01,0.745-0.03c0.398-0.021,0.926-0.03,1.586-0.03c2.245,0,3.922,0.255,5.029,0.767
			c1.107,0.511,1.662,1.293,1.662,2.346c0,0.702-0.245,1.321-0.732,1.859c-0.488,0.537-1.176,0.955-2.066,1.256
			c-0.889,0.301-1.902,0.451-3.04,0.451c-1.718,0-3.084-0.314-4.1-0.939c-1.016-0.627-1.524-1.482-1.524-2.565
			c0-0.451,0.119-0.795,0.359-1.03c0.239-0.237,0.606-0.399,1.104-0.489c-0.62-0.261-1.214-0.391-1.782-0.391
			c-0.63,0-1.178,0.105-1.639,0.316c-0.462,0.21-0.813,0.509-1.051,0.894c-0.239,0.387-0.357,0.844-0.357,1.377
			c0,0.873,0.398,1.666,1.195,2.383c0.798,0.717,1.89,1.28,3.277,1.686c1.386,0.405,2.903,0.609,4.548,0.609
			c0.742,0,1.464-0.051,2.164-0.15c0.702-0.1,1.354-0.244,1.959-0.429c0.605-0.186,1.181-0.417,1.729-0.693
			c0.549-0.276,1.041-0.588,1.479-0.939c1.096-0.883,1.646-2.037,1.646-3.461c0-0.933-0.238-1.725-0.717-2.377
			c-0.334-0.431-0.787-0.829-1.356-1.195c-0.568-0.366-1.133-0.624-1.692-0.774c-0.67-0.191-1.378-0.32-2.125-0.384
			c-0.747-0.064-1.872-0.108-3.377-0.127c-0.913,0-1.371-0.206-1.371-0.618c0-0.199,0.104-0.368,0.312-0.503
			c0.208-0.136,0.541-0.249,0.999-0.339c1.422-0.141,2.514-0.355,3.276-0.646c1.241-0.442,2.175-1.038,2.805-1.791
			c0.63-0.751,0.945-1.635,0.945-2.647c0-0.822-0.194-1.554-0.579-2.196c-0.387-0.642-1.006-1.254-1.86-1.836
			c1.798,0.312,3.007,0.466,3.627,0.466c0.478,0,0.787-0.135,0.93-0.406l0.945-2.091C259.085,36.725,257.728,36.815,256.489,36.815
			 M227.69,36.98h-2.118c0.426,0.321,0.719,0.586,0.876,0.798c0.157,0.21,0.259,0.467,0.305,0.766
			c0.047,0.301,0.069,0.848,0.069,1.64v8.59c0,0.782-0.022,1.326-0.069,1.632c-0.045,0.306-0.147,0.564-0.305,0.775
			c-0.158,0.21-0.45,0.476-0.876,0.797h5.456c-0.417-0.331-0.704-0.599-0.861-0.804c-0.158-0.205-0.261-0.474-0.312-0.806
			c-0.051-0.331-0.076-0.862-0.076-1.595v-6.559c0-0.822,0.147-1.438,0.442-1.85c0.326-0.441,0.762-0.787,1.311-1.038
			c0.547-0.251,1.152-0.377,1.814-0.377c0.679,0,1.323,0.128,1.927,0.384c0.604,0.255,1.063,0.59,1.379,1.001
			c0.255,0.3,0.438,0.705,0.549,1.21c0.113,0.507,0.168,1.191,0.168,2.054v5.175c0,0.702-0.025,1.224-0.076,1.565
			s-0.158,0.62-0.32,0.835c-0.164,0.215-0.458,0.483-0.883,0.804h5.501c-0.579-0.451-0.932-0.84-1.059-1.165
			c-0.126-0.326-0.191-1.005-0.191-2.039v-5.521c0-1.233-0.055-2.158-0.166-2.775c-0.113-0.617-0.317-1.155-0.611-1.617
			c-0.315-0.452-0.732-0.855-1.249-1.21c-0.517-0.357-1.114-0.63-1.791-0.821c-0.675-0.191-1.349-0.286-2.019-0.286
			c-0.975,0-1.828,0.189-2.561,0.566c-0.732,0.375-1.504,1.03-2.316,1.962v-2.708C229.24,36.774,228.595,36.98,227.69,36.98
			 M219.314,31.55c-0.406,0.392-0.611,0.863-0.611,1.415c0,0.571,0.197,1.055,0.586,1.45c0.392,0.397,0.872,0.596,1.441,0.596
			c0.588,0,1.079-0.198,1.47-0.596c0.391-0.396,0.586-0.879,0.586-1.45c0-0.542-0.194-1.011-0.579-1.407
			c-0.385-0.396-0.858-0.594-1.417-0.594C220.213,30.963,219.719,31.158,219.314,31.55 M220.366,36.98h-2.286
			c0.426,0.321,0.719,0.586,0.876,0.798c0.157,0.21,0.26,0.467,0.305,0.766c0.046,0.301,0.069,0.848,0.069,1.64v8.59
			c0,0.782-0.022,1.326-0.069,1.632c-0.045,0.306-0.147,0.564-0.305,0.775c-0.158,0.21-0.45,0.476-0.876,0.797h5.455
			c-0.417-0.331-0.703-0.599-0.861-0.804c-0.158-0.205-0.261-0.474-0.312-0.806c-0.051-0.331-0.077-0.862-0.077-1.595V36.363
			C221.899,36.774,221.26,36.98,220.366,36.98 M216.043,51.978c-0.417-0.331-0.703-0.599-0.861-0.804
			c-0.158-0.205-0.263-0.474-0.314-0.806c-0.051-0.331-0.075-0.862-0.075-1.595V36.363c-0.387,0.411-1.017,0.617-1.89,0.617h-2.318
			c0.417,0.312,0.703,0.571,0.861,0.783c0.158,0.21,0.263,0.494,0.314,0.849c0.051,0.357,0.077,0.88,0.077,1.572v5.823
			c0,1.173-0.346,2.114-1.036,2.82c-0.691,0.707-1.615,1.061-2.775,1.061c-1.25,0-2.225-0.411-2.925-1.233
			c-0.296-0.381-0.506-0.818-0.633-1.309c-0.127-0.491-0.19-1.132-0.19-1.924v-9.057c-0.387,0.411-1.041,0.617-1.966,0.617h-2.24
			c0.426,0.321,0.719,0.586,0.876,0.798c0.158,0.21,0.26,0.467,0.305,0.766c0.047,0.301,0.069,0.848,0.069,1.64v5.823
			c0,1.834,0.309,3.208,0.93,4.122c0.488,0.722,1.16,1.283,2.019,1.685c0.858,0.401,1.831,0.602,2.919,0.602
			c0.741,0,1.363-0.078,1.866-0.234c0.504-0.154,0.966-0.401,1.387-0.736c0.422-0.336,0.927-0.865,1.516-1.587v2.121H216.043z
			 M184.742,36.98h-2.12c0.427,0.321,0.72,0.586,0.878,0.798c0.158,0.21,0.258,0.467,0.305,0.766
			c0.045,0.301,0.069,0.848,0.069,1.64v8.59c0,0.782-0.024,1.326-0.069,1.632c-0.047,0.306-0.147,0.564-0.305,0.775
			c-0.158,0.21-0.45,0.476-0.878,0.797h5.457c-0.417-0.331-0.704-0.599-0.861-0.804c-0.157-0.205-0.262-0.474-0.312-0.806
			c-0.051-0.331-0.076-0.862-0.076-1.595v-6.559c0-0.822,0.147-1.438,0.441-1.85c0.326-0.441,0.762-0.787,1.311-1.038
			c0.549-0.251,1.153-0.377,1.813-0.377c0.681,0,1.323,0.128,1.929,0.384c0.603,0.255,1.064,0.59,1.378,1.001
			c0.254,0.3,0.437,0.705,0.549,1.21c0.111,0.507,0.168,1.191,0.168,2.054v5.175c0,0.702-0.025,1.224-0.076,1.565
			s-0.157,0.62-0.321,0.835c-0.162,0.215-0.456,0.483-0.883,0.804h5.502c-0.579-0.451-0.933-0.84-1.059-1.165
			c-0.127-0.326-0.191-1.005-0.191-2.039v-5.521c0-1.233-0.055-2.158-0.168-2.775c-0.112-0.617-0.315-1.155-0.609-1.617
			c-0.315-0.452-0.732-0.855-1.249-1.21c-0.519-0.357-1.116-0.63-1.791-0.821c-0.676-0.191-1.348-0.286-2.02-0.286
			c-0.975,0-1.828,0.189-2.561,0.566c-0.73,0.375-1.503,1.03-2.316,1.962v-2.708C186.292,36.774,185.647,36.98,184.742,36.98
			 M176.365,31.55c-0.406,0.392-0.609,0.863-0.609,1.415c0,0.571,0.195,1.055,0.587,1.45c0.391,0.397,0.872,0.596,1.44,0.596
			c0.59,0,1.08-0.198,1.471-0.596c0.39-0.396,0.587-0.879,0.587-1.45c0-0.542-0.193-1.011-0.579-1.407
			c-0.387-0.396-0.86-0.594-1.418-0.594C177.265,30.963,176.771,31.158,176.365,31.55 M177.416,36.98h-2.286
			c0.428,0.321,0.719,0.586,0.876,0.798c0.158,0.21,0.26,0.467,0.306,0.766c0.045,0.301,0.067,0.848,0.067,1.64v8.59
			c0,0.782-0.022,1.326-0.067,1.632c-0.046,0.306-0.148,0.564-0.306,0.775c-0.158,0.21-0.449,0.476-0.876,0.797h5.457
			c-0.417-0.331-0.705-0.599-0.861-0.804c-0.159-0.205-0.262-0.474-0.313-0.806c-0.051-0.331-0.077-0.862-0.077-1.595V36.363
			C178.951,36.774,178.31,36.98,177.416,36.98 M171.488,39.131c0.559,0,0.981,0.043,1.265,0.129
			c0.285,0.085,0.549,0.239,0.793,0.459v-2.934c-0.315,0.131-0.96,0.195-1.936,0.195h-2.561v-4.844h-1.279v0.406
			c0,1.826-0.407,3.159-1.22,4.001c-0.681,0.753-1.585,1.224-2.712,1.414v1.173h2.255v7.176c0,1.044,0.031,1.826,0.091,2.347
			c0.062,0.521,0.173,0.95,0.336,1.286c0.162,0.336,0.416,0.684,0.762,1.045c0.924,0.953,2.048,1.43,3.367,1.43
			c0.417,0,0.813-0.066,1.189-0.195l1.707-2.302c-0.487,0.18-0.945,0.271-1.372,0.271c-1.077,0-1.92-0.372-2.529-1.113
			c-0.234-0.291-0.392-0.642-0.473-1.054c-0.083-0.411-0.123-1.073-0.123-1.985v-6.906H171.488z M148.972,36.98h-2.118
			c0.426,0.321,0.718,0.586,0.876,0.798c0.158,0.21,0.259,0.467,0.305,0.766c0.047,0.301,0.069,0.848,0.069,1.64v8.59
			c0,0.782-0.022,1.326-0.069,1.632c-0.045,0.306-0.147,0.564-0.305,0.775c-0.158,0.21-0.45,0.476-0.876,0.797h5.455
			c-0.415-0.331-0.703-0.599-0.861-0.804s-0.261-0.474-0.312-0.806c-0.051-0.331-0.076-0.862-0.076-1.595v-6.559
			c0-0.822,0.147-1.438,0.443-1.85c0.326-0.441,0.762-0.787,1.311-1.038c0.548-0.251,1.152-0.377,1.814-0.377
			c0.68,0,1.323,0.128,1.927,0.384c0.605,0.255,1.065,0.59,1.38,1.001c0.254,0.3,0.437,0.705,0.548,1.21
			c0.113,0.507,0.168,1.191,0.168,2.054v5.175c0,0.702-0.025,1.224-0.076,1.565s-0.158,0.62-0.32,0.835
			c-0.163,0.215-0.458,0.483-0.883,0.804h5.502c-0.58-0.451-0.933-0.84-1.061-1.165c-0.126-0.326-0.19-1.005-0.19-2.039v-5.521
			c0-1.233-0.056-2.158-0.167-2.775c-0.113-0.617-0.315-1.155-0.611-1.617c-0.315-0.452-0.732-0.855-1.25-1.21
			c-0.517-0.357-1.114-0.63-1.791-0.821c-0.675-0.191-1.348-0.286-2.019-0.286c-0.975,0-1.829,0.189-2.561,0.566
			c-0.732,0.375-1.505,1.03-2.316,1.962v-2.708C150.521,36.774,149.876,36.98,148.972,36.98 M139.097,39.492
			c0.818,0.511,1.454,1.229,1.905,2.151c0.451,0.923,0.678,1.986,0.678,3.189c0,1.064-0.216,2.001-0.648,2.814
			c-0.432,0.811-1.038,1.444-1.821,1.894c-0.783,0.451-1.667,0.678-2.652,0.678c-0.741,0-1.435-0.149-2.08-0.444
			c-0.645-0.296-1.217-0.725-1.715-1.287c-0.498-0.561-0.879-1.218-1.143-1.969c-0.264-0.753-0.396-1.541-0.396-2.362
			c0-1.042,0.211-1.98,0.633-2.812c0.421-0.833,1.012-1.478,1.774-1.934c0.762-0.456,1.637-0.684,2.622-0.684
			C137.332,38.726,138.28,38.981,139.097,39.492 M134.563,36.74c-0.671,0.131-1.305,0.329-1.905,0.594c-0.6,0.265-1.169,0.6-1.707,1
			c-0.964,0.742-1.722,1.662-2.271,2.76c-0.548,1.098-0.822,2.25-0.822,3.453c0,1.464,0.363,2.797,1.089,4.002
			c0.726,1.203,1.737,2.148,3.033,2.835c1.296,0.687,2.73,1.031,4.305,1.031c1.616,0,3.096-0.355,4.443-1.068
			s2.403-1.683,3.17-2.911c0.768-1.229,1.152-2.584,1.152-4.069c0-1.083-0.219-2.123-0.656-3.121
			c-0.438-0.998-1.073-1.868-1.905-2.61c-1.535-1.394-3.435-2.091-5.7-2.091C135.976,36.543,135.233,36.609,134.563,36.74
			 M118.912,30.045c-2.205,0-4.199,0.486-5.982,1.46c-1.783,0.972-3.177,2.319-4.183,4.039c-1.007,1.719-1.509,3.642-1.509,5.769
			c0,1.644,0.293,3.156,0.876,4.535c0.585,1.38,1.433,2.568,2.546,3.566c1.113,0.999,2.444,1.762,3.993,2.295
			c1.549,0.531,3.238,0.796,5.067,0.796c0.651,0,1.253-0.033,1.808-0.097c0.554-0.066,1.093-0.165,1.623-0.301
			c0.528-0.135,1.092-0.323,1.69-0.564l1.662-3.79c-1.473,0.772-2.759,1.321-3.856,1.647c-1.097,0.326-2.22,0.489-3.368,0.489
			c-1.524,0-2.922-0.403-4.191-1.211c-1.271-0.807-2.271-1.908-3.003-3.303c-0.732-1.394-1.097-2.928-1.097-4.602
			c0-1.545,0.332-2.922,0.998-4.13c0.666-1.209,1.598-2.15,2.797-2.821c1.199-0.672,2.555-1.008,4.068-1.008
			c1.006,0,1.981,0.144,2.926,0.429c0.945,0.287,1.966,0.739,3.063,1.362v-3.731C122.545,30.321,120.568,30.045,118.912,30.045"/>
		<path style="clip-path:url(#SVGID_6_);fill:#00275B;" d="M290.934,19.885h1.404l0.843-2.388h4.121l0.812,2.388h1.513l-3.449-9.595
			h-1.639L290.934,19.885z M293.571,16.375l1.03-2.912c0.249-0.693,0.546-1.555,0.671-2.034h0.031
			c0.095,0.432,0.358,1.201,0.577,1.865l1.046,3.081H293.571z M281.618,19.885h1.263V13.54c0-0.508-0.032-0.877-0.032-1.294h0.032
			c0.234,0.462,0.514,0.986,0.811,1.464l3.919,6.175h1.48v-9.595h-1.263v6.347c0,0.507,0.017,0.924,0.031,1.354h-0.046
			c-0.219-0.477-0.546-1.079-0.828-1.509l-3.918-6.192h-1.451V19.885z M274.875,18.871c-1.983,0-2.856-1.542-2.856-3.775
			c0-2.235,0.873-3.791,2.856-3.791c1.983,0,2.873,1.541,2.873,3.775C277.748,17.314,276.858,18.871,274.875,18.871 M274.875,20.008
			c2.997,0,4.353-2.323,4.353-4.927c0-2.743-1.356-4.914-4.353-4.914c-2.997,0-4.353,2.325-4.353,4.929
			C270.522,17.837,271.878,20.008,274.875,20.008 M262.719,19.885h6.461v-1.138h-4.838l4.713-7.287v-1.17h-6.15v1.139h4.588
			l-4.775,7.35V19.885z M259.083,19.885h1.388v-9.595h-1.388V19.885z M251.388,14.65v-3.283h1.53c1.25,0,1.827,0.555,1.827,1.648
			c0,0.987-0.609,1.635-1.827,1.635H251.388z M256.584,19.978c0.202,0,0.375-0.016,0.562-0.061v-1.077
			c-0.124,0.015-0.234,0.031-0.344,0.031c-0.312,0-0.577-0.108-0.843-0.51l-1.949-2.85c1.482-0.369,2.151-1.448,2.151-2.511
			c0-1.71-1.137-2.71-2.933-2.71h-3.23v9.595h1.387v-4.236h1.218l2.186,3.297C255.29,19.715,255.852,19.978,256.584,19.978
			 M239.496,19.885h1.406l0.843-2.388h4.119l0.812,2.388h1.515l-3.45-9.595h-1.638L239.496,19.885z M242.135,16.375l1.029-2.912
			c0.25-0.693,0.547-1.555,0.672-2.034h0.031c0.093,0.432,0.359,1.201,0.577,1.865l1.046,3.081H242.135z M229.199,19.885h1.386
			v-4.56h3.652v-1.076h-3.652v-2.821h4.057v-1.139h-5.444V19.885z M222.486,18.871c-1.983,0-2.856-1.542-2.856-3.775
			c0-2.235,0.873-3.791,2.856-3.791c1.983,0,2.872,1.541,2.872,3.775C225.359,17.314,224.469,18.871,222.486,18.871 M222.486,20.008
			c2.997,0,4.353-2.323,4.353-4.927c0-2.743-1.356-4.914-4.353-4.914s-4.353,2.325-4.353,4.929
			C218.133,17.837,219.489,20.008,222.486,20.008 M208.692,19.885h1.386v-3.757l3.199-5.822h-1.45l-2.357,4.588l-2.418-4.588h-1.514
			l3.153,5.822V19.885z M200.889,19.885h1.386v-8.457h2.81v-1.139h-6.881v1.139h2.685V19.885z M195.053,19.885h1.387v-9.595h-1.387
			V19.885z M189.527,20.008c1.888,0,3.183-1.061,3.183-2.725c0-1.833-1.356-2.418-2.574-2.943c-1.203-0.523-1.827-0.77-1.827-1.664
			c0-0.877,0.609-1.386,1.749-1.386c0.874,0,1.732,0.261,2.2,0.492v-1.2c-0.358-0.123-1.294-0.416-2.263-0.416
			c-1.811,0-3.074,0.846-3.074,2.525c0,1.604,1.014,2.188,2.043,2.65c1.422,0.648,2.28,0.894,2.28,2.004
			c0,1.047-0.75,1.541-1.951,1.541c-0.874,0-1.842-0.324-2.433-0.587v1.217C187.499,19.793,188.45,20.008,189.527,20.008
			 M179.757,14.65v-3.283h1.53c1.249,0,1.827,0.555,1.827,1.648c0,0.987-0.609,1.635-1.827,1.635H179.757z M184.953,19.978
			c0.202,0,0.375-0.016,0.562-0.061v-1.077c-0.126,0.015-0.234,0.031-0.343,0.031c-0.312,0-0.578-0.108-0.843-0.51l-1.95-2.85
			c1.482-0.369,2.152-1.448,2.152-2.511c0-1.71-1.137-2.71-2.933-2.71h-3.229v9.595h1.387v-4.236h1.218l2.186,3.297
			C183.659,19.715,184.22,19.978,184.953,19.978 M170.628,19.885h5.32v-1.138h-3.933V15.31h3.355v-1.092h-3.355v-2.79h3.933v-1.139
			h-5.32V19.885z M163.934,19.885h1.497l3.465-9.595h-1.404l-2.076,6.038c-0.251,0.709-0.546,1.74-0.67,2.219h-0.031
			c-0.11-0.479-0.407-1.494-0.641-2.219l-2.013-6.038h-1.53L163.934,19.885z M157.349,19.885h1.388v-9.595h-1.388V19.885z
			 M146.877,19.885h1.262V13.54c0-0.508-0.032-0.877-0.032-1.294h0.032c0.234,0.462,0.514,0.986,0.811,1.464l3.92,6.175h1.48v-9.595
			h-1.263v6.347c0,0.507,0.016,0.924,0.031,1.354h-0.046c-0.219-0.477-0.546-1.079-0.828-1.509l-3.918-6.192h-1.449V19.885z
			 M140.384,20.008c2.076,0,3.62-1.122,3.62-3.448v-6.27h-1.309v6.101c0,1.555-0.749,2.481-2.31,2.481
			c-1.561,0-2.28-0.926-2.28-2.481v-6.101h-1.386v6.27C136.718,18.886,138.323,20.008,140.384,20.008 M125.262,19.885h5.32v-1.138
			h-3.933V15.31h3.356v-1.092h-3.356v-2.79h3.933v-1.139h-5.32V19.885z M114.822,19.885h1.386v-4.452h4.763v4.452h1.387v-9.595
			h-1.387v4.052h-4.763v-4.052h-1.386V19.885z M108.923,19.885h1.387v-8.457h2.808v-1.139h-6.881v1.139h2.685V19.885z"/>
	</g>
</g>
</svg>
